<?xml version="1.0" encoding="UTF-8"?>
<svg id="Layer_1" data-name="Layer 1" xmlns="http://www.w3.org/2000/svg" viewBox="0 -4.555 288.8 288.8">
  <defs>
    <style>
      .cls-1 {
        fill: #003889;
      }
    </style>
  </defs>
  <path class="cls-1" d="M254.49,202.96c-18.7.64-36.73,1.56-55.35-3.85,18.22-4.21,58.59-12.7,71.21-25.72,11.79-19.62-15.92-23.55-19.05-47.71-2.33-12.43-3.28-24.78-6.7-36.89-10.87-38.49-43.67-66.66-83.22-71.65-.68-7.73-5.42-12.6-11.37-15.76-1.72-.92-3.66-1.37-5.61-1.37h0c-1.95,0-3.89.46-5.61,1.37-5.95,3.16-10.69,8.03-11.37,15.76-39.55,4.99-72.34,33.17-83.22,71.65-3.41,12.11-4.37,24.46-6.7,36.89-3.12,24.16-30.84,28.09-19.05,47.71,12.62,13.02,52.98,21.51,71.21,25.72-18.62,5.41-36.65,4.49-55.35,3.85-6.28,17.74-18.09,32.87-34.1,43.75,7.49,13.48,22.8,18.34,37.76,15.63,13.75-2.45,24.74-10.5,34.9-21.08,1.89,9.39-3.56,17.45-9.89,24.32,18.37,11.43,42.03,9.19,54.48-11.66,2.49,11.89,11.89,19.13,22.1,24.2,2.09,1.04,3.45,1.56,4.83,1.56s2.74-.52,4.82-1.56c10.21-5.07,19.62-12.31,22.1-24.2,12.45,20.85,36.11,23.09,54.48,11.66-6.33-6.87-11.78-14.93-9.89-24.32,10.16,10.57,21.16,18.63,34.9,21.08,14.96,2.71,30.27-2.16,37.76-15.63-16-10.88-27.82-26.01-34.1-43.75ZM112.66,153.97c-14.81-.31-19.57-37.31.78-55.8,3.64-3.31,7.98-5.05,12.06-3.67,3.85,1.31,7.32,5.18,7.73,10.1,1.13,13.45-2.76,49.74-20.57,49.37ZM169.78,215.41c-3.54,7.63-10.57,11.43-18.32,13.39.08,2.27.12,4.77-1.25,6.07-1.3,1.23-3.55,1.87-5.81,1.88-2.27,0-4.52-.65-5.82-1.88-1.37-1.3-1.33-3.8-1.25-6.07-7.75-1.96-14.78-5.76-18.32-13.39-.69-3.17.74-7.43,1.85-10.89,8,.74,15.76,1.12,23.54,1.12s15.54-.38,23.53-1.12c1.11,3.46,2.54,7.72,1.85,10.89ZM176.13,153.97c-17.81.37-21.7-35.92-20.57-49.37.41-4.92,3.87-8.8,7.73-10.1,4.08-1.38,8.42.36,12.06,3.67,20.35,18.49,15.58,55.49.78,55.8Z"/>
</svg>