<?xml version="1.0" encoding="UTF-8"?>
<svg id="Layer_1" data-name="Layer 1" xmlns="http://www.w3.org/2000/svg" viewBox="0 0 863.06 163.31">
  <defs>
    <style>
      .cls-1 {
        fill: #003889;
      }

      .cls-2 {
        fill: #1a1a1a;
      }
    </style>
  </defs>
  <g>
    <path class="cls-2" d="M183.21,80.02c0-44.95,27.69-70.7,64.15-70.7s64.15,25.75,64.15,70.7-27.69,70.52-64.15,70.52-64.15-25.84-64.15-70.52ZM282.9,80.02c0-29.63-14.21-45.69-35.54-45.69s-35.54,16.15-35.54,45.69,14.21,45.5,35.54,45.5,35.54-16.06,35.54-45.5Z"/>
    <path class="cls-2" d="M319.25,97.56c0-31.94,19.38-53.35,50.49-53.35,24.46,0,42,13.11,45.87,34.34l-25.75,4.8c-2.31-10.71-9.14-17.35-19.84-17.35-14.77,0-22.52,12.83-22.52,31.47s7.75,31.47,22.52,31.47c10.71,0,17.81-6.83,20.03-18l25.75,4.71c-3.88,21.69-21.32,35.07-46.06,35.07-31.11,0-50.49-21.41-50.49-53.17Z"/>
    <path class="cls-2" d="M478.61,66.64h-19.29v51.87c0,6.55,2.68,9.6,9.42,9.6,2.12,0,6.74-.65,8.77-1.2l3.97,20.77c-6.18,1.85-12.37,2.49-17.91,2.49-20.67,0-31.94-10.34-31.94-29.26v-54.27h-14.21v-21.14h14.21v-24.55h27.69v24.55h19.29v21.14Z"/>
    <path class="cls-2" d="M481.45,97.56c0-31.94,19.38-53.35,50.49-53.35s50.49,21.41,50.49,53.35-19.48,53.17-50.49,53.17-50.49-21.41-50.49-53.17ZM554.28,97.46c0-18.18-7.57-31.47-22.34-31.47s-22.24,13.2-22.24,31.47,7.48,31.47,22.24,31.47,22.34-13.48,22.34-31.47Z"/>
    <path class="cls-1" d="M596.82,11.16h48.73c28.71,0,42.27,16.34,42.27,36.46,0,17.63-10.52,25.66-22.52,28.89v1.29c12.83.83,27.88,12.65,27.88,34.24s-13.66,36.64-46.06,36.64h-50.3V11.16ZM644.63,71.53c14.77,0,26.4-9.32,26.4-23.54,0-11.91-8.03-21.32-25.84-21.32h-30.83v44.86h30.27ZM646.66,133.18c21.41,0,29.63-9.41,29.63-21.32,0-13.75-11.08-25.57-28.71-25.57h-33.23v46.89h32.3Z"/>
    <path class="cls-1" d="M703.92,97.93c0-31.66,18.28-53.72,46.43-53.72,21.88,0,44.95,13.48,44.95,51.6v6.92h-74.58c.83,21.6,13.38,33.41,31.66,33.41,12.18,0,21.32-5.35,25.2-15.88l16.06,4.43c-4.8,15.6-20.21,26.21-41.35,26.21-29.91,0-48.37-21.23-48.37-52.98ZM778.41,88.7c-1.57-17.54-11.08-29.72-28.06-29.72s-28.52,13.94-29.54,29.72h57.6Z"/>
    <path class="cls-1" d="M826.77,148.69h-16.61V11.16h16.61v137.53Z"/>
    <path class="cls-1" d="M863.06,148.69h-16.61V11.16h16.61v137.53Z"/>
  </g>
  <path class="cls-2" d="M148.47,118.51c-10.92.37-21.45.91-32.32-2.25,10.64-2.46,34.21-7.42,41.58-15.02,6.88-11.46-9.3-13.75-11.12-27.86-1.36-7.26-1.92-14.47-3.91-21.54-6.35-22.47-25.5-38.92-48.59-41.84-.4-4.51-3.16-7.36-6.64-9.2-1.01-.54-2.14-.8-3.28-.8h0c-1.14,0-2.27.27-3.28.8-3.47,1.85-6.24,4.69-6.64,9.2-23.09,2.91-42.24,19.37-48.59,41.84-1.99,7.07-2.55,14.28-3.91,21.54-1.82,14.11-18.01,16.4-11.12,27.86,7.37,7.6,30.94,12.56,41.58,15.02-10.87,3.16-21.4,2.62-32.32,2.25-3.67,10.36-10.56,19.19-19.91,25.55,4.37,7.87,13.31,10.71,22.05,9.13,8.03-1.43,14.45-6.13,20.38-12.31,1.1,5.49-2.08,10.19-5.78,14.2,10.73,6.68,24.54,5.36,31.81-6.81,1.45,6.94,6.94,11.17,12.91,14.13,1.22.61,2.02.91,2.82.91s1.6-.3,2.82-.91c5.96-2.96,11.46-7.19,12.91-14.13,7.27,12.17,21.09,13.48,31.81,6.81-3.7-4.01-6.88-8.72-5.78-14.2,5.93,6.17,12.35,10.88,20.38,12.31,8.73,1.58,17.68-1.26,22.05-9.13-9.34-6.35-16.24-15.19-19.91-25.55ZM65.66,89.91c-8.65-.18-11.43-21.79.45-32.58,2.13-1.94,4.66-2.95,7.04-2.15,2.25.76,4.27,3.03,4.51,5.9.66,7.85-1.61,29.04-12.01,28.83ZM99.01,125.78c-2.07,4.45-6.17,6.68-10.7,7.82.05,1.32.07,2.79-.73,3.54-.76.72-2.08,1.09-3.39,1.1-1.32,0-2.64-.38-3.4-1.1-.8-.76-.78-2.22-.73-3.54-4.52-1.14-8.63-3.36-10.7-7.82-.4-1.85.43-4.34,1.08-6.36,4.67.43,9.21.65,13.75.65s9.07-.22,13.74-.65c.65,2.02,1.48,4.51,1.08,6.36ZM102.72,89.91c-10.4.22-12.67-20.98-12.01-28.83.24-2.87,2.26-5.14,4.51-5.9,2.38-.8,4.91.21,7.04,2.15,11.88,10.8,9.1,32.4.45,32.58Z"/>
</svg>